<?xml version="1.0" encoding="utf-8"?>
<!-- Generator: Adobe Illustrator 21.0.0, SVG Export Plug-In . SVG Version: 6.00 Build 0)  -->
<svg version="1.1" id="Слой_1" xmlns="http://www.w3.org/2000/svg" xmlns:xlink="http://www.w3.org/1999/xlink" x="0px" y="0px"
	 viewBox="0 0 512 512" style="enable-background:new 0 0 512 512;" xml:space="preserve">
<style type="text/css">
	.st0{fill:#FF8A65;}
	.st1{fill:#FFFFFF;}
</style>
<path class="st0" d="M239.5,27.4c-15.2,0-27.6,12.4-27.6,27.6v40.4c0,7-5.7,12.8-12.8,12.8c-7,0-12.8-5.7-12.8-12.8V55
	c0-29.3,23.8-53.1,53.1-53.1h60.6c29.3,0,53.1,23.8,53.1,53.1v40.4c0,7-5.7,12.8-12.8,12.8c-7,0-12.8-5.7-12.8-12.8V55
	c0-15.2-12.4-27.6-27.6-27.6H239.5z"/>
<path class="st0" d="M148.1,95.4V55c0-18.7,15.3-26.4,25.5-27.6c0-12.7,12.8-25.5,12.8-25.5l-10.6,0c-29.3,0-53.1,23.8-53.1,53.1
	v40.4c0,7,5.7,12.8,12.8,12.8C142.4,108.2,148.1,102.4,148.1,95.4z"/>
<path class="st1" d="M464,86.1c2.6,2.4,4,5.8,4,9.3v383.6c0,6.7-5.2,12.3-12,12.7L133,512c-7,0.4-13.1-4.9-13.5-11.9
	c-0.4-7,4.9-13.1,11.9-13.5l311.1-19.4V109L133,128.3c-7,0.4-13.1-4.9-13.5-11.9c-0.4-7,4.9-13.1,11.9-13.5l323.1-20.2
	C458,82.5,461.4,83.7,464,86.1z"/>
<path class="st1" d="M64.1,85.1c3.3-2.4,7.6-3,11.5-1.8c0,0,55.4,18.5,60.6,20.2c5.2,1.7,8.7,6.6,8.7,12.1v383.6c0,4.1-2,8-5.3,10.3
	c-3.3,2.4-7.6,3-11.5,1.8l-60.6-20.2c-5.2-1.7-8.7-6.6-8.7-12.1V95.4C58.8,91.3,60.8,87.5,64.1,85.1z M84.4,113.1v356.8l35.1,11.7
	V124.8L84.4,113.1z"/>
</svg>
