<?xml version="1.0" encoding="utf-8"?>
<!-- Generator: Adobe Illustrator 21.0.0, SVG Export Plug-In . SVG Version: 6.00 Build 0)  -->
<svg version="1.1" id="Слой_1" xmlns="http://www.w3.org/2000/svg" xmlns:xlink="http://www.w3.org/1999/xlink" x="0px" y="0px"
	 viewBox="0 0 512 512" style="enable-background:new 0 0 512 512;" xml:space="preserve">
<style type="text/css">
	.st0{fill:#FFFFFF;}
	.st1{fill:#FF8A65;}
</style>
<path class="st0" d="M268.5,88.4v313h-25.6v-313H268.5z"/>
<path class="st0" d="M84.6,12.8C84.6,5.7,90.3,0,97.4,0h317.2c7.1,0,12.8,5.7,12.8,12.8v88.4c0,7.1-5.7,12.8-12.8,12.8H97.4
	c-7.1,0-12.8-5.7-12.8-12.8V12.8z M110.2,25.6v62.8h291.6V25.6H110.2z"/>
<path class="st0" d="M63.4,256c0-7.1,5.7-12.8,12.8-12.8h359.5c7.1,0,12.8,5.7,12.8,12.8v145.5H423V268.8H89v132.7H63.4V256z"/>
<path class="st1" d="M190.3,388.7c0-7.1,5.7-12.8,12.8-12.8h105.7c7.1,0,12.8,5.7,12.8,12.8v110.5c0,7.1-5.7,12.8-12.8,12.8H203.1
	c-7.1,0-12.8-5.7-12.8-12.8V388.7z M215.9,401.5v84.9h80.1v-84.9H215.9z"/>
<path class="st1" d="M0,388.7c0-7.1,5.7-12.8,12.8-12.8h105.7c7.1,0,12.8,5.7,12.8,12.8v110.5c0,7.1-5.7,12.8-12.8,12.8H12.8
	C5.7,512,0,506.3,0,499.2V388.7z M25.6,401.5v84.9h80.1v-84.9H25.6z"/>
<path class="st1" d="M380.7,388.7c0-7.1,5.7-12.8,12.8-12.8h105.7c7.1,0,12.8,5.7,12.8,12.8v110.5c0,7.1-5.7,12.8-12.8,12.8H393.5
	c-7.1,0-12.8-5.7-12.8-12.8V388.7z M406.3,401.5v84.9h80.1v-84.9H406.3z"/>
</svg>
