<?xml version="1.0" encoding="utf-8"?>
<!-- Generator: Adobe Illustrator 21.0.0, SVG Export Plug-In . SVG Version: 6.00 Build 0)  -->
<svg version="1.1" id="Слой_1" xmlns="http://www.w3.org/2000/svg" xmlns:xlink="http://www.w3.org/1999/xlink" x="0px" y="0px"
	 viewBox="0 0 512 512" style="enable-background:new 0 0 512 512;" xml:space="preserve">
<style type="text/css">
	.st0{fill:#FFFFFF;}
	.st1{fill:#FF8A65;}
</style>
<path class="st0" d="M45.7,68.2c-10.4,0-18.9,8.5-18.9,18.9v232.1c0,10.4,8.5,18.9,18.9,18.9h168.8c7.1,0,12.8,5.7,12.8,12.8
	c0,7.1-5.7,12.8-12.8,12.8H45.7c-24.5,0-44.4-19.9-44.4-44.4V87.1c0-24.5,19.9-44.4,44.4-44.4h379.7c24.5,0,44.4,19.9,44.4,44.4V182
	c0,7.1-5.7,12.8-12.8,12.8c-7.1,0-12.8-5.7-12.8-12.8V87.1c0-10.4-8.5-18.9-18.9-18.9H45.7z M13.3,56.7c4.4-5.5,12.4-6.4,17.9-2
	l204.3,163.7L439.8,55.3c5.5-4.4,13.5-3.5,17.9,2c4.4,5.5,3.5,13.5-2,17.9L243.5,244.7c-4.7,3.7-11.3,3.7-15.9,0L15.3,74.6
	C9.8,70.2,8.9,62.2,13.3,56.7z"/>
<path class="st1" d="M383.2,267.9c-5.4-9-11.9-16.3-19.3-21.9c-14.7-11.2-32-15.2-48.4-12.8c-32.9,4.7-61.1,34.1-61.1,76.2
	c0,19.3,8.8,38.8,20.2,56.3c11.6,17.7,26.7,34.9,41.6,49.6c14.9,14.8,29.7,27.6,40.8,36.7c5.6,4.5,10.2,8.2,13.5,10.7
	c1.6,1.2,2.9,2.2,3.8,2.9l1,0.8l0.3,0.2l0.1,0.1l0,0l0,0c0,0,0,0,7.5-10.3l-7.5,10.3c4.5,3.3,10.5,3.3,15,0l-7.5-10.3
	c7.5,10.3,7.5,10.3,7.5,10.3l0,0l0,0l0.1-0.1l0.3-0.2l1-0.8c0.9-0.7,2.2-1.6,3.8-2.9c3.3-2.5,7.9-6.1,13.5-10.7
	c11.1-9.1,25.9-21.8,40.8-36.7c14.8-14.8,30-31.9,41.6-49.6c11.4-17.5,20.2-37,20.2-56.3c0-42.1-28.1-71.5-61.1-76.2
	c-16.5-2.3-33.8,1.6-48.4,12.8C395.1,251.6,388.6,258.9,383.2,267.9z M383.2,440.2c-2.8-2.1-6.2-4.8-10-8
	c-10.7-8.7-24.8-20.9-38.9-35c-14.2-14.1-28-29.8-38.2-45.5c-10.4-15.9-16.1-30.4-16.1-42.4c0-30,19.3-48.1,39.1-50.9
	c9.9-1.4,20.3,0.9,29.3,7.8c9.1,6.9,17.6,19.2,22.4,38.9c1.4,5.7,6.5,9.8,12.4,9.8c5.9,0,11-4,12.4-9.8
	c4.7-19.7,13.3-31.9,22.4-38.9c9.1-6.9,19.4-9.2,29.3-7.8c19.8,2.8,39.1,20.9,39.1,50.9c0,12-5.7,26.4-16.1,42.4
	c-10.2,15.7-24,31.4-38.2,45.5c-14.1,14.1-28.3,26.3-38.9,35C389.4,435.4,386,438.1,383.2,440.2z"/>
</svg>
