<?xml version="1.0" encoding="utf-8"?>
<!-- Generator: Adobe Illustrator 21.0.0, SVG Export Plug-In . SVG Version: 6.00 Build 0)  -->
<svg version="1.1" id="Слой_1" xmlns="http://www.w3.org/2000/svg" xmlns:xlink="http://www.w3.org/1999/xlink" x="0px" y="0px"
	 viewBox="0 0 512 512" style="enable-background:new 0 0 512 512;" xml:space="preserve">
<style type="text/css">
	.st0{fill:#FF8A65;}
	.st1{fill:#FFFFFF;}
</style>
<path class="st0" d="M256.8,31.6C182.3,31.6,122,92,122,166.5H96.5c0-88.6,71.8-160.3,160.3-160.3c88.5,0,160.3,71.8,160.3,160.3
	h-25.5C391.6,92,331.2,31.6,256.8,31.6z"/>
<path class="st0" d="M56.5,242.5c-16.2,0-29.4,13.2-29.4,29.4c0,16.2,13.2,29.4,29.4,29.4c7,0,12.8,5.7,12.8,12.8
	c0,7-5.7,12.8-12.8,12.8c-30.3,0-54.9-24.6-54.9-54.9c0-30.3,24.6-54.9,54.9-54.9c7,0,12.8,5.7,12.8,12.8
	C69.3,236.8,63.6,242.5,56.5,242.5z"/>
<path class="st0" d="M444.3,229.7c0-7,5.7-12.8,12.8-12.8c30.3,0,54.9,24.6,54.9,54.9c0,30.3-24.6,54.9-54.9,54.9
	c-7,0-12.8-5.7-12.8-12.8c0-7,5.7-12.8,12.8-12.8c16.2,0,29.4-13.2,29.4-29.4c0-16.2-13.2-29.4-29.4-29.4
	C450,242.5,444.3,236.8,444.3,229.7z"/>
<path class="st1" d="M98.7,179.2c-16.2,0-29.4,13.2-29.4,29.4v126.5c0,16.2,13.2,29.4,29.4,29.4h29.4V179.2H98.7z M43.7,208.6
	c0-30.3,24.6-54.9,54.9-54.9h42.2c7,0,12.8,5.7,12.8,12.8v210.8c0,7-5.7,12.8-12.8,12.8H98.7c-30.3,0-54.9-24.6-54.9-54.9V208.6z
	 M438.2,384.9c18.7-8.8,31.6-27.7,31.6-49.8V208.6c0-30.3-24.6-54.9-54.9-54.9h-42.2c-7,0-12.8,5.7-12.8,12.8v210.8
	c0,7,5.7,12.8,12.8,12.8h39.9v8.3c0,16.6-6.5,28.7-16.8,37c-10.6,8.5-26,13.5-44.2,13.5h-42.2c-7,0-12.8,5.7-12.8,12.8
	c0,7,5.7,12.8,12.8,12.8h42.2c22.6,0,44.1-6.2,60.2-19.1c16.4-13.2,26.4-32.7,26.4-56.9V384.9z M421.8,363.7
	c-2.2,0.5-4.5,0.8-6.9,0.8h-29.4V179.2h29.4c16.2,0,29.4,13.2,29.4,29.4v126.5c0,13.5-9.1,24.9-21.5,28.3
	C422.4,363.5,422.1,363.6,421.8,363.7z"/>
<path class="st1" d="M277.9,442.8c-10.4,0-18.9,8.5-18.9,18.9c0,10.4,8.5,18.9,18.9,18.9c10.4,0,18.9-8.5,18.9-18.9
	C296.7,451.2,288.3,442.8,277.9,442.8z M233.5,461.6c0-24.5,19.9-44.4,44.4-44.4c24.5,0,44.4,19.9,44.4,44.4
	c0,24.5-19.9,44.4-44.4,44.4C253.4,506,233.5,486.1,233.5,461.6z"/>
</svg>
