<?xml version="1.0" encoding="utf-8"?>
<!-- Generator: Adobe Illustrator 21.0.0, SVG Export Plug-In . SVG Version: 6.00 Build 0)  -->
<svg version="1.1" id="Слой_1" xmlns="http://www.w3.org/2000/svg" xmlns:xlink="http://www.w3.org/1999/xlink" x="0px" y="0px"
	 viewBox="0 0 512 512" style="enable-background:new 0 0 512 512;" xml:space="preserve">
<style type="text/css">
	.st0{fill:#FF8A65;}
	.st1{fill:#FFFFFF;}
</style>
<path class="st0" d="M96.9,253.2c7.4,0,13.3,6,13.3,13.3v21.1c0,7.4-6,13.3-13.3,13.3c-7.4,0-13.3-6-13.3-13.3v-21.1
	C83.6,259.2,89.6,253.2,96.9,253.2z"/>
<path class="st0" d="M413.5,253.2c7.4,0,13.3,6,13.3,13.3v21.1c0,7.4-6,13.3-13.3,13.3c-7.4,0-13.3-6-13.3-13.3v-21.1
	C400.1,259.2,406.1,253.2,413.5,253.2z"/>
<path class="st0" d="M265.8,0c7.4,0,13.3,6,13.3,13.3v42.2c0,7.4-6,13.3-13.3,13.3c-7.4,0-13.3-6-13.3-13.3V13.3
	C252.4,6,258.4,0,265.8,0z"/>
<path class="st0" d="M189.1,161c0-7.4,6-13.3,13.3-13.3H308c7.4,0,13.3,6,13.3,13.3c0,7.4-6,13.3-13.3,13.3H202.5
	C195.1,174.4,189.1,168.4,189.1,161z"/>
<path class="st0" d="M189.1,224.4c0-7.4,6-13.3,13.3-13.3H308c7.4,0,13.3,6,13.3,13.3c0,7.4-6,13.3-13.3,13.3H202.5
	C195.1,237.7,189.1,231.7,189.1,224.4z"/>
<path class="st0" d="M189.1,287.7c0-7.4,6-13.3,13.3-13.3H308c7.4,0,13.3,6,13.3,13.3c0,7.4-6,13.3-13.3,13.3H202.5
	C195.1,301,189.1,295,189.1,287.7z"/>
<path class="st0" d="M189.1,351c0-7.4,6-13.3,13.3-13.3H308c7.4,0,13.3,6,13.3,13.3c0,7.4-6,13.3-13.3,13.3H202.5
	C195.1,364.3,189.1,358.3,189.1,351z"/>
<path class="st0" d="M189.1,414.3c0-7.4,6-13.3,13.3-13.3H308c7.4,0,13.3,6,13.3,13.3c0,7.4-6,13.3-13.3,13.3H202.5
	C195.1,427.6,189.1,421.6,189.1,414.3z"/>
<path class="st1" d="M-0.8,498.7c0-7.4,6-13.3,13.3-13.3h485.3c7.4,0,13.3,6,13.3,13.3c0,7.4-6,13.3-13.3,13.3H12.5
	C5.2,512-0.8,506-0.8,498.7z"/>
<path class="st1" d="M146.9,97.7c0-7.4,6-13.3,13.3-13.3h189.9c7.4,0,13.3,6,13.3,13.3v400.9c0,7.4-6,13.3-13.3,13.3H160.3
	c-7.4,0-13.3-6-13.3-13.3V97.7z M173.6,111.1v374.3h163.3V111.1H173.6z"/>
<path class="st1" d="M379,287.7c0-7.4,6-13.3,13.3-13.3h84.4c7.4,0,13.3,6,13.3,13.3v211c0,7.4-6,13.3-13.3,13.3h-84.4
	c-7.4,0-13.3-6-13.3-13.3V287.7z M405.7,301v184.4h57.8V301H405.7z"/>
<path class="st1" d="M20.3,287.7c0-7.4,6-13.3,13.3-13.3H118c7.4,0,13.3,6,13.3,13.3v211c0,7.4-6,13.3-13.3,13.3H33.6
	c-7.4,0-13.3-6-13.3-13.3V287.7z M47,301v184.4h57.8V301H47z"/>
<path class="st1" d="M210.2,55.5c0-7.4,6-13.3,13.3-13.3h63.3c7.4,0,13.3,6,13.3,13.3v42.2c0,7.4-6,13.3-13.3,13.3h-63.3
	c-7.4,0-13.3-6-13.3-13.3V55.5z M236.9,68.9v15.5h36.7V68.9H236.9z"/>
</svg>
